<?xml version="1.0" encoding="UTF-8"?>
<svg xmlns="http://www.w3.org/2000/svg"
     viewBox="0 0 1024 1024"
     width="1024"
     height="1024">

  <rect x="0" y="0"
        width="1024"
        height="1024"
        rx="170"
        fill="#0053A8"/>

  <g id="wir">
    <path d="M 581.24 879.26 L 592.39 878.32 L 603.49 876.99 L 614.55 875.27 L 625.54 873.17 L 636.45 870.69 L 647.27 867.83 L 657.98 864.59 L 668.56 860.97 L 679.02 856.99 L 689.33 852.65 L 699.49 847.95 L 709.47 842.89 L 719.27 837.49 L 728.87 831.76 L 738.27 825.69 L 747.45 819.29 L 756.40 812.58 L 765.11 805.55 L 773.57 798.23 L 781.77 790.62 L 789.70 782.72 L 797.35 774.56 L 804.70 766.13 L 811.76 757.45 L 818.51 748.52 L 824.94 739.37 L 831.05 730.00 L 836.83 720.41 L 842.27 710.64 L 847.37 700.68 L 852.11 690.54 L 856.50 680.25 L 860.52 669.81 L 864.18 659.24 L 867.46 648.54 L 870.37 637.74 L 872.90 626.84 L 875.05 615.86 L 876.81 604.81 L 878.18 593.70 L 879.17 582.56 L 879.76 571.38 L 879.96 560.20 L 879.78 549.01 L 879.20 537.84 L 878.23 526.69 L 876.87 515.58 L 875.13 504.53 L 873.00 493.55 L 870.48 482.65 L 867.59 471.84 L 864.32 461.14 L 860.68 450.56 L 856.67 440.11 L 852.30 429.81 L 847.57 419.67 L 842.49 409.70 L 837.07 399.92 L 831.30 390.33 L 825.21 380.95 L 818.79 371.78 L 812.05 362.85 L 805.00 354.16 L 797.66 345.72 L 790.02 337.54 L 782.11 329.63 L 773.92 322.01 L 765.47 314.67 L 756.77 307.64 L 747.83 300.91 L 738.66 294.50 L 729.27 288.42 L 719.67 282.67 L 709.88 277.25 L 699.90 272.19 L 689.76 267.47 L 679.45 263.11 L 669.00 259.11 L 658.42 255.49 L 647.71 252.23 L 636.90 249.35 L 626.00 246.85 L 615.01 244.73 L 603.96 243.00 L 592.85 241.66 L 581.70 240.70 L 570.53 240.14 L 559.34 239.97 L 548.15 240.18 L 536.98 240.79 L 525.84 241.79 L 514.73 243.18 L 503.69 244.95 L 492.71 247.11 L 481.81 249.65 L 471.01 252.58 L 471.01 252.58 L 480.75 252.08 L 490.51 251.87 L 500.26 251.97 L 510.01 252.36 L 519.74 253.05 L 529.44 254.03 L 539.11 255.31 L 548.74 256.89 L 558.31 258.75 L 567.83 260.91 L 577.27 263.36 L 586.63 266.09 L 595.91 269.11 L 605.09 272.41 L 614.16 275.99 L 623.12 279.84 L 631.96 283.96 L 640.67 288.35 L 649.25 293.01 L 657.67 297.92 L 665.94 303.09 L 674.06 308.51 L 682.00 314.17 L 689.76 320.07 L 697.35 326.21 L 704.74 332.57 L 711.93 339.16 L 718.93 345.96 L 725.71 352.97 L 732.27 360.19 L 738.61 367.60 L 744.72 375.21 L 750.60 382.99 L 756.23 390.95 L 761.63 399.08 L 766.77 407.37 L 771.65 415.81 L 776.28 424.40 L 780.64 433.12 L 784.74 441.98 L 788.56 450.95 L 792.11 460.04 L 795.38 469.23 L 798.36 478.51 L 801.07 487.89 L 803.48 497.34 L 805.61 506.86 L 807.45 516.44 L 808.99 526.07 L 810.24 535.74 L 811.19 545.45 L 811.85 555.18 L 812.21 564.93 L 812.27 574.68 L 812.04 584.44 L 811.51 594.18 L 810.68 603.89 L 809.55 613.58 L 808.13 623.23 L 806.42 632.84 L 804.42 642.38 L 802.12 651.86 L 799.54 661.27 L 796.67 670.59 L 793.52 679.83 L 790.09 688.96 L 786.39 697.98 L 782.41 706.89 L 778.16 715.67 L 773.64 724.31 L 768.86 732.82 L 763.83 741.17 L 758.54 749.37 L 753.01 757.40 L 747.23 765.26 L 741.22 772.94 L 734.98 780.44 L 728.51 787.74 L 721.82 794.84 L 714.92 801.73 L 707.81 808.41 L 700.50 814.87 L 692.99 821.10 L 685.30 827.10 L 677.43 832.87 L 669.39 838.39 L 661.19 843.66 L 652.83 848.68 L 644.31 853.45 L 635.66 857.95 L 626.88 862.19 L 617.96 866.16 L 608.94 869.85 L 599.80 873.27 L 590.56 876.40 L 581.24 879.26 Z" fill="#FFFFFF"/>
    <path d="M 144.74 581.24 L 145.68 592.39 L 147.01 603.49 L 148.73 614.55 L 150.83 625.54 L 153.31 636.45 L 156.17 647.27 L 159.41 657.98 L 163.03 668.56 L 167.01 679.02 L 171.35 689.33 L 176.05 699.49 L 181.11 709.47 L 186.51 719.27 L 192.24 728.87 L 198.31 738.27 L 204.71 747.45 L 211.42 756.40 L 218.45 765.11 L 225.77 773.57 L 233.38 781.77 L 241.28 789.70 L 249.44 797.35 L 257.87 804.70 L 266.55 811.76 L 275.48 818.51 L 284.63 824.94 L 294.00 831.05 L 303.59 836.83 L 313.36 842.27 L 323.32 847.37 L 333.46 852.11 L 343.75 856.50 L 354.19 860.52 L 364.76 864.18 L 375.46 867.46 L 386.26 870.37 L 397.16 872.90 L 408.14 875.05 L 419.19 876.81 L 430.30 878.18 L 441.44 879.17 L 452.62 879.76 L 463.80 879.96 L 474.99 879.78 L 486.16 879.20 L 497.31 878.23 L 508.42 876.87 L 519.47 875.13 L 530.45 873.00 L 541.35 870.48 L 552.16 867.59 L 562.86 864.32 L 573.44 860.68 L 583.89 856.67 L 594.19 852.30 L 604.33 847.57 L 614.30 842.49 L 624.08 837.07 L 633.67 831.30 L 643.05 825.21 L 652.22 818.79 L 661.15 812.05 L 669.84 805.00 L 678.28 797.66 L 686.46 790.02 L 694.37 782.11 L 701.99 773.92 L 709.33 765.47 L 716.36 756.77 L 723.09 747.83 L 729.50 738.66 L 735.58 729.27 L 741.33 719.67 L 746.75 709.88 L 751.81 699.90 L 756.53 689.76 L 760.89 679.45 L 764.89 669.00 L 768.51 658.42 L 771.77 647.71 L 774.65 636.90 L 777.15 626.00 L 779.27 615.01 L 781.00 603.96 L 782.34 592.85 L 783.30 581.70 L 783.86 570.53 L 784.03 559.34 L 783.82 548.15 L 783.21 536.98 L 782.21 525.84 L 780.82 514.73 L 779.05 503.69 L 776.89 492.71 L 774.35 481.81 L 771.42 471.01 L 771.42 471.01 L 771.92 480.75 L 772.13 490.51 L 772.03 500.26 L 771.64 510.01 L 770.95 519.74 L 769.97 529.44 L 768.69 539.11 L 767.11 548.74 L 765.25 558.31 L 763.09 567.83 L 760.64 577.27 L 757.91 586.63 L 754.89 595.91 L 751.59 605.09 L 748.01 614.16 L 744.16 623.12 L 740.04 631.96 L 735.65 640.67 L 730.99 649.25 L 726.08 657.67 L 720.91 665.94 L 715.49 674.06 L 709.83 682.00 L 703.93 689.76 L 697.79 697.35 L 691.43 704.74 L 684.84 711.93 L 678.04 718.93 L 671.03 725.71 L 663.81 732.27 L 656.40 738.61 L 648.79 744.72 L 641.01 750.60 L 633.05 756.23 L 624.92 761.63 L 616.63 766.77 L 608.19 771.65 L 599.60 776.28 L 590.88 780.64 L 582.02 784.74 L 573.05 788.56 L 563.96 792.11 L 554.77 795.38 L 545.49 798.36 L 536.11 801.07 L 526.66 803.48 L 517.14 805.61 L 507.56 807.45 L 497.93 808.99 L 488.26 810.24 L 478.55 811.19 L 468.82 811.85 L 459.07 812.21 L 449.32 812.27 L 439.56 812.04 L 429.82 811.51 L 420.11 810.68 L 410.42 809.55 L 400.77 808.13 L 391.16 806.42 L 381.62 804.42 L 372.14 802.12 L 362.73 799.54 L 353.41 796.67 L 344.17 793.52 L 335.04 790.09 L 326.02 786.39 L 317.11 782.41 L 308.33 778.16 L 299.69 773.64 L 291.18 768.86 L 282.83 763.83 L 274.63 758.54 L 266.60 753.01 L 258.74 747.23 L 251.06 741.22 L 243.56 734.98 L 236.26 728.51 L 229.16 721.82 L 222.27 714.92 L 215.59 707.81 L 209.13 700.50 L 202.90 692.99 L 196.90 685.30 L 191.13 677.43 L 185.61 669.39 L 180.34 661.19 L 175.32 652.83 L 170.55 644.31 L 166.05 635.66 L 161.81 626.88 L 157.84 617.96 L 154.15 608.94 L 150.73 599.80 L 147.60 590.56 L 144.74 581.24 Z" fill="#FFFFFF"/>
    <path d="M 442.76 144.74 L 431.61 145.68 L 420.51 147.01 L 409.45 148.73 L 398.46 150.83 L 387.55 153.31 L 376.73 156.17 L 366.02 159.41 L 355.44 163.03 L 344.98 167.01 L 334.67 171.35 L 324.51 176.05 L 314.53 181.11 L 304.73 186.51 L 295.13 192.24 L 285.73 198.31 L 276.55 204.71 L 267.60 211.42 L 258.89 218.45 L 250.43 225.77 L 242.23 233.38 L 234.30 241.28 L 226.65 249.44 L 219.30 257.87 L 212.24 266.55 L 205.49 275.48 L 199.06 284.63 L 192.95 294.00 L 187.17 303.59 L 181.73 313.36 L 176.63 323.32 L 171.89 333.46 L 167.50 343.75 L 163.48 354.19 L 159.82 364.76 L 156.54 375.46 L 153.63 386.26 L 151.10 397.16 L 148.95 408.14 L 147.19 419.19 L 145.82 430.30 L 144.83 441.44 L 144.24 452.62 L 144.04 463.80 L 144.22 474.99 L 144.80 486.16 L 145.77 497.31 L 147.13 508.42 L 148.87 519.47 L 151.00 530.45 L 153.52 541.35 L 156.41 552.16 L 159.68 562.86 L 163.32 573.44 L 167.33 583.89 L 171.70 594.19 L 176.43 604.33 L 181.51 614.30 L 186.93 624.08 L 192.70 633.67 L 198.79 643.05 L 205.21 652.22 L 211.95 661.15 L 219.00 669.84 L 226.34 678.28 L 233.98 686.46 L 241.89 694.37 L 250.08 701.99 L 258.53 709.33 L 267.23 716.36 L 276.17 723.09 L 285.34 729.50 L 294.73 735.58 L 304.33 741.33 L 314.12 746.75 L 324.10 751.81 L 334.24 756.53 L 344.55 760.89 L 355.00 764.89 L 365.58 768.51 L 376.29 771.77 L 387.10 774.65 L 398.00 777.15 L 408.99 779.27 L 420.04 781.00 L 431.15 782.34 L 442.30 783.30 L 453.47 783.86 L 464.66 784.03 L 475.85 783.82 L 487.02 783.21 L 498.16 782.21 L 509.27 780.82 L 520.31 779.05 L 531.29 776.89 L 542.19 774.35 L 552.99 771.42 L 552.99 771.42 L 543.25 771.92 L 533.49 772.13 L 523.74 772.03 L 513.99 771.64 L 504.26 770.95 L 494.56 769.97 L 484.89 768.69 L 475.26 767.11 L 465.69 765.25 L 456.17 763.09 L 446.73 760.64 L 437.37 757.91 L 428.09 754.89 L 418.91 751.59 L 409.84 748.01 L 400.88 744.16 L 392.04 740.04 L 383.33 735.65 L 374.75 730.99 L 366.33 726.08 L 358.06 720.91 L 349.94 715.49 L 342.00 709.83 L 334.24 703.93 L 326.65 697.79 L 319.26 691.43 L 312.07 684.84 L 305.07 678.04 L 298.29 671.03 L 291.73 663.81 L 285.39 656.40 L 279.28 648.79 L 273.40 641.01 L 267.77 633.05 L 262.37 624.92 L 257.23 616.63 L 252.35 608.19 L 247.72 599.60 L 243.36 590.88 L 239.26 582.02 L 235.44 573.05 L 231.89 563.96 L 228.62 554.77 L 225.64 545.49 L 222.93 536.11 L 220.52 526.66 L 218.39 517.14 L 216.55 507.56 L 215.01 497.93 L 213.76 488.26 L 212.81 478.55 L 212.15 468.82 L 211.79 459.07 L 211.73 449.32 L 211.96 439.56 L 212.49 429.82 L 213.32 420.11 L 214.45 410.42 L 215.87 400.77 L 217.58 391.16 L 219.58 381.62 L 221.88 372.14 L 224.46 362.73 L 227.33 353.41 L 230.48 344.17 L 233.91 335.04 L 237.61 326.02 L 241.59 317.11 L 245.84 308.33 L 250.36 299.69 L 255.14 291.18 L 260.17 282.83 L 265.46 274.63 L 270.99 266.60 L 276.77 258.74 L 282.78 251.06 L 289.02 243.56 L 295.49 236.26 L 302.18 229.16 L 309.08 222.27 L 316.19 215.59 L 323.50 209.13 L 331.01 202.90 L 338.70 196.90 L 346.57 191.13 L 354.61 185.61 L 362.81 180.34 L 371.17 175.32 L 379.69 170.55 L 388.34 166.05 L 397.12 161.81 L 406.04 157.84 L 415.06 154.15 L 424.20 150.73 L 433.44 147.60 L 442.76 144.74 Z" fill="#FFFFFF"/>
    <path d="M 879.26 442.76 L 878.32 431.61 L 876.99 420.51 L 875.27 409.45 L 873.17 398.46 L 870.69 387.55 L 867.83 376.73 L 864.59 366.02 L 860.97 355.44 L 856.99 344.98 L 852.65 334.67 L 847.95 324.51 L 842.89 314.53 L 837.49 304.73 L 831.76 295.13 L 825.69 285.73 L 819.29 276.55 L 812.58 267.60 L 805.55 258.89 L 798.23 250.43 L 790.62 242.23 L 782.72 234.30 L 774.56 226.65 L 766.13 219.30 L 757.45 212.24 L 748.52 205.49 L 739.37 199.06 L 730.00 192.95 L 720.41 187.17 L 710.64 181.73 L 700.68 176.63 L 690.54 171.89 L 680.25 167.50 L 669.81 163.48 L 659.24 159.82 L 648.54 156.54 L 637.74 153.63 L 626.84 151.10 L 615.86 148.95 L 604.81 147.19 L 593.70 145.82 L 582.56 144.83 L 571.38 144.24 L 560.20 144.04 L 549.01 144.22 L 537.84 144.80 L 526.69 145.77 L 515.58 147.13 L 504.53 148.87 L 493.55 151.00 L 482.65 153.52 L 471.84 156.41 L 461.14 159.68 L 450.56 163.32 L 440.11 167.33 L 429.81 171.70 L 419.67 176.43 L 409.70 181.51 L 399.92 186.93 L 390.33 192.70 L 380.95 198.79 L 371.78 205.21 L 362.85 211.95 L 354.16 219.00 L 345.72 226.34 L 337.54 233.98 L 329.63 241.89 L 322.01 250.08 L 314.67 258.53 L 307.64 267.23 L 300.91 276.17 L 294.50 285.34 L 288.42 294.73 L 282.67 304.33 L 277.25 314.12 L 272.19 324.10 L 267.47 334.24 L 263.11 344.55 L 259.11 355.00 L 255.49 365.58 L 252.23 376.29 L 249.35 387.10 L 246.85 398.00 L 244.73 408.99 L 243.00 420.04 L 241.66 431.15 L 240.70 442.30 L 240.14 453.47 L 239.97 464.66 L 240.18 475.85 L 240.79 487.02 L 241.79 498.16 L 243.18 509.27 L 244.95 520.31 L 247.11 531.29 L 249.65 542.19 L 252.58 552.99 L 252.58 552.99 L 252.08 543.25 L 251.87 533.49 L 251.97 523.74 L 252.36 513.99 L 253.05 504.26 L 254.03 494.56 L 255.31 484.89 L 256.89 475.26 L 258.75 465.69 L 260.91 456.17 L 263.36 446.73 L 266.09 437.37 L 269.11 428.09 L 272.41 418.91 L 275.99 409.84 L 279.84 400.88 L 283.96 392.04 L 288.35 383.33 L 293.01 374.75 L 297.92 366.33 L 303.09 358.06 L 308.51 349.94 L 314.17 342.00 L 320.07 334.24 L 326.21 326.65 L 332.57 319.26 L 339.16 312.07 L 345.96 305.07 L 352.97 298.29 L 360.19 291.73 L 367.60 285.39 L 375.21 279.28 L 382.99 273.40 L 390.95 267.77 L 399.08 262.37 L 407.37 257.23 L 415.81 252.35 L 424.40 247.72 L 433.12 243.36 L 441.98 239.26 L 450.95 235.44 L 460.04 231.89 L 469.23 228.62 L 478.51 225.64 L 487.89 222.93 L 497.34 220.52 L 506.86 218.39 L 516.44 216.55 L 526.07 215.01 L 535.74 213.76 L 545.45 212.81 L 555.18 212.15 L 564.93 211.79 L 574.68 211.73 L 584.44 211.96 L 594.18 212.49 L 603.89 213.32 L 613.58 214.45 L 623.23 215.87 L 632.84 217.58 L 642.38 219.58 L 651.86 221.88 L 661.27 224.46 L 670.59 227.33 L 679.83 230.48 L 688.96 233.91 L 697.98 237.61 L 706.89 241.59 L 715.67 245.84 L 724.31 250.36 L 732.82 255.14 L 741.17 260.17 L 749.37 265.46 L 757.40 270.99 L 765.26 276.77 L 772.94 282.78 L 780.44 289.02 L 787.74 295.49 L 794.84 302.18 L 801.73 309.08 L 808.41 316.19 L 814.87 323.50 L 821.10 331.01 L 827.10 338.70 L 832.87 346.57 L 838.39 354.61 L 843.66 362.81 L 848.68 371.17 L 853.45 379.69 L 857.95 388.34 L 862.19 397.12 L 866.16 406.04 L 869.85 415.06 L 873.27 424.20 L 876.40 433.44 L 879.26 442.76 Z" fill="#FFFFFF"/>

    <circle cx="512.0" cy="512.0" r="57.660098522167495" fill="#FFFFFF"/>
  </g>

</svg>
